<svg width="86" height="28" viewBox="0 0 86 28" fill="none" xmlns="http://www.w3.org/2000/svg">
<path d="M45.3987 7.36225C45.3987 8.324 44.6283 9.09842 43.6723 9.09842C42.7162 9.09842 41.9464 8.324 41.9464 7.36225C41.9464 6.40051 42.69 5.62609 43.6723 5.62609C44.6554 5.65278 45.3987 6.42746 45.3987 7.36225ZM38.2819 10.8618V11.2893C38.2819 11.2893 37.4591 10.2203 35.7064 10.2203C32.8123 10.2203 30.5548 12.4376 30.5548 15.5093C30.5548 18.5547 32.7858 20.7984 35.7064 20.7984C37.4856 20.7984 38.2819 19.7032 38.2819 19.7032V20.1572C38.2819 20.3709 38.4416 20.5307 38.6538 20.5307H40.8044V10.4866H38.6538C38.4416 10.4874 38.2819 10.6747 38.2819 10.8618ZM38.2819 17.2991C37.884 17.887 37.0871 18.3946 36.1314 18.3946C34.432 18.3946 33.1306 17.3261 33.1306 15.5093C33.1306 13.6929 34.432 12.6244 36.1314 12.6244C37.0609 12.6244 37.9105 13.1586 38.2819 13.7195V17.2991ZM42.3979 10.4874H44.9469V20.5315H42.3979V10.4874ZM80.4764 10.22C78.7238 10.22 77.9004 11.289 77.9004 11.289V5.65278H75.3514V20.5315H77.5024C77.7149 20.5315 77.8738 20.3445 77.8738 20.1574V19.7035C77.8738 19.7035 78.6972 20.7987 80.4494 20.7987C83.344 20.7987 85.6009 18.5555 85.6009 15.5101C85.6009 12.4648 83.344 10.22 80.4764 10.22ZM80.0515 18.3676C79.0686 18.3676 78.2988 17.8606 77.9004 17.2724V13.6929C78.2988 13.1586 79.1485 12.5977 80.0515 12.5977C81.7508 12.5977 83.0519 13.6662 83.0519 15.4827C83.0519 17.2991 81.7511 18.3676 80.0515 18.3676ZM74.0239 14.5748V20.5582H71.4744V14.8684C71.4744 13.2125 70.9433 12.5443 69.5103 12.5443C68.7405 12.5443 67.9436 12.9451 67.4383 13.533V20.5318H64.8898V10.4877H66.9072C67.1197 10.4877 67.2791 10.6747 67.2791 10.8618V11.2893C68.0227 10.5143 69.005 10.2203 69.9873 10.2203C71.1028 10.2203 72.0323 10.5413 72.7758 11.1823C73.6783 11.9303 74.0239 12.8918 74.0239 14.5748ZM58.7018 10.22C56.9497 10.22 56.1263 11.289 56.1263 11.289V5.65278H53.5773V20.5315H55.7278C55.9403 20.5315 56.0997 20.3445 56.0997 20.1574V19.7035C56.0997 19.7035 56.9231 20.7987 58.6753 20.7987C61.5699 20.7987 63.8269 18.5555 63.8269 15.5101C63.8534 12.4645 61.5965 10.22 58.7018 10.22ZM58.2768 18.3676C57.2945 18.3676 56.5247 17.8606 56.1263 17.2724V13.6929C56.5247 13.1586 57.3744 12.5977 58.2768 12.5977C59.9767 12.5977 61.2776 13.6662 61.2776 15.4827C61.2776 17.2991 59.9767 18.3676 58.2768 18.3676ZM51.3731 10.22C52.1429 10.22 52.5414 10.354 52.5414 10.354V12.7311C52.5414 12.7311 50.4171 12.0098 49.0897 13.5327V20.558H46.5401V10.4874H48.6912C48.9037 10.4874 49.0626 10.6745 49.0626 10.8615V11.289C49.5411 10.7278 50.5768 10.22 51.3731 10.22ZM24.8992 19.6232C24.7666 19.3027 24.6337 18.9555 24.501 18.6614C24.2883 18.1808 24.0758 17.7264 23.8904 17.2991L23.8638 17.2724C22.0313 13.2654 20.0667 9.20542 17.9952 5.19886L17.9156 5.03821C17.6978 4.62257 17.4854 4.20402 17.2787 3.78266C17.0129 3.30152 16.7476 2.79449 16.3227 2.31335C15.473 1.24486 14.2514 0.656982 12.9505 0.656982C11.6226 0.656982 10.4278 1.24487 9.55187 2.25972C9.15343 2.74032 8.8611 3.24788 8.59583 3.72902C8.38859 4.15012 8.17626 4.56867 7.95891 4.98457L7.87906 5.14522C5.83434 9.15178 3.84294 13.212 2.0107 17.2188L1.98392 17.2719C1.79823 17.7 1.58547 18.1539 1.37299 18.6342C1.24036 18.9283 1.10772 19.2488 0.975083 19.596C0.629698 20.5841 0.523319 21.5192 0.656486 22.4812C0.94855 24.4847 2.27597 26.167 4.10848 26.9155C4.79898 27.2096 5.51601 27.343 6.2593 27.343C6.47179 27.343 6.73707 27.3163 6.94982 27.2894C7.82628 27.1827 8.72899 26.8891 9.60545 26.3815C10.6941 25.767 11.7298 24.8858 12.898 23.6036C14.0663 24.8858 15.1284 25.767 16.1906 26.3815C17.0673 26.8891 17.9698 27.1827 18.8459 27.2894C19.0584 27.3166 19.3242 27.343 19.5367 27.343C20.2803 27.343 21.0236 27.2096 21.6873 26.9155C23.5463 26.167 24.8472 24.4581 25.1395 22.4812C25.3504 21.5464 25.2443 20.6119 24.8992 19.6232ZM12.9237 21.0122C11.4897 19.1957 10.5602 17.4862 10.2418 16.0441C10.1092 15.4295 10.0824 14.8953 10.1623 14.4144C10.215 13.9869 10.3747 13.6128 10.5872 13.2923C11.0918 12.5715 11.9414 12.1171 12.924 12.1171C13.9068 12.1171 14.783 12.5446 15.2611 13.2923C15.4735 13.6128 15.6327 13.9872 15.6863 14.4144C15.7656 14.8956 15.7391 15.4562 15.6064 16.0441C15.2868 17.4595 14.3573 19.1693 12.9237 21.0122ZM23.5182 22.2677C23.3325 23.6567 22.403 24.8591 21.1021 25.3934C20.4649 25.6602 19.7741 25.7406 19.0842 25.6602C18.4205 25.5799 17.7562 25.3662 17.0662 24.9659C16.1102 24.4311 15.1544 23.6036 14.039 22.3744C15.7913 20.2111 16.8535 18.2339 17.2519 16.4714C17.4379 15.643 17.4647 14.8953 17.3846 14.2004C17.2787 13.5327 17.0394 12.9182 16.6678 12.3839C15.8441 11.1815 14.4631 10.4874 12.9235 10.4874C11.3838 10.4874 10.0028 11.2087 9.17969 12.3839C8.80804 12.9182 8.56877 13.5327 8.46266 14.2004C8.35655 14.8953 8.38281 15.6697 8.59529 16.4714C8.99347 18.2339 10.0822 20.2375 11.808 22.4011C10.7193 23.63 9.73676 24.4583 8.78072 24.9926C8.09022 25.3934 7.42677 25.6071 6.76306 25.6869C6.0463 25.7673 5.35553 25.6602 4.74487 25.4201C3.44397 24.8858 2.51446 23.6834 2.32877 22.2944C2.24919 21.6267 2.30197 20.9591 2.56778 20.2111C2.64709 19.9437 2.78026 19.6768 2.9129 19.3563C3.09885 18.9288 3.3108 18.4744 3.52355 18.0204L3.55035 17.9673C5.38232 13.9869 7.34719 9.92673 9.39191 5.97354L9.47149 5.81289C9.68424 5.41261 9.89673 4.98511 10.1089 4.58429C10.3214 4.15679 10.5602 3.75597 10.8525 3.40853C11.4101 2.76807 12.1534 2.42036 12.9768 2.42036C13.8002 2.42036 14.5435 2.76807 15.1011 3.40853C15.3934 3.75677 15.6322 4.15759 15.8447 4.58429C16.0574 4.98511 16.2699 5.41261 16.4818 5.81289L16.5617 5.97354C18.5752 9.94315 20.514 13.9507 22.377 17.994V18.0207C22.5897 18.4488 22.7754 18.9291 22.9879 19.3571C23.1205 19.6771 23.2534 19.9439 23.333 20.2113C23.545 20.9052 23.6246 21.5734 23.5182 22.2677Z" fill="#718087"/>
</svg>
