<svg width="79" height="32" viewBox="0 0 79 32" fill="none" xmlns="http://www.w3.org/2000/svg">
<g filter="url(#filter0_d_9_30)">
<path d="M18.6815 11.8451C19.8617 11.9399 20.8531 12.4142 21.7028 13.3152C22.5525 14.2162 22.9774 15.4492 22.9774 17.0142C22.9774 18.9111 22.3637 20.476 21.0891 21.6142C19.8145 22.7523 18.0206 23.3214 15.613 23.3214H4V0.843018H15.5658C17.5957 0.843018 19.248 1.41209 20.4754 2.50281C21.7028 3.64096 22.3165 5.11106 22.3165 6.96054C22.3165 8.38322 21.9388 9.47395 21.1363 10.3276C20.3338 11.1812 19.5312 11.608 18.6343 11.7028L18.6815 11.8451ZM9.52327 10.1379H14.3384C15.141 10.1379 15.8019 9.90075 16.3211 9.42652C16.7932 8.9523 17.0765 8.38322 17.0765 7.57704C17.0765 6.8657 16.8404 6.34405 16.3684 5.91724C15.8963 5.49044 15.2826 5.30075 14.5745 5.30075H9.52327V10.1379ZM14.6217 18.8636C15.4714 18.8636 16.1795 18.6265 16.6516 18.1997C17.1237 17.7729 17.3597 17.1564 17.3597 16.3502C17.3597 15.5915 17.1237 15.0224 16.6044 14.5956C16.1323 14.1688 15.4714 13.9317 14.7161 13.9317H9.52327V18.8636H14.6217ZM42.0964 23.3214H36.762V21.709C35.4402 23.1317 33.6935 23.843 31.6164 23.843C29.6336 23.843 28.0758 23.1791 26.8956 21.8987C25.7154 20.6183 25.1017 18.9111 25.1017 16.8245V6.48632H30.389V15.6863C30.389 16.6822 30.6722 17.4884 31.1915 18.1049C31.7108 18.7214 32.4189 19.0059 33.2686 19.0059C34.3544 19.0059 35.2041 18.6265 35.8178 17.8678C36.4315 17.109 36.7148 15.9234 36.7148 14.3111V6.48632H42.0492L42.0964 23.3214ZM58.5718 23.3214H44.4096V22.3255L51.0658 10.7544H44.5984V6.48632H58.4774V7.48219L51.8211 19.0533H58.5246V23.3214H58.5718ZM75 23.3214H60.885V22.3255L67.494 10.7544H61.0266V6.48632H74.9056V7.48219L68.2493 19.0533H74.9528L75 23.3214Z" fill="#718087"/>
</g>
<defs>
<filter id="filter0_d_9_30" x="0" y="0.843018" width="79" height="31" filterUnits="userSpaceOnUse" color-interpolation-filters="sRGB">
<feFlood flood-opacity="0" result="BackgroundImageFix"/>
<feColorMatrix in="SourceAlpha" type="matrix" values="0 0 0 0 0 0 0 0 0 0 0 0 0 0 0 0 0 0 127 0" result="hardAlpha"/>
<feOffset dy="4"/>
<feGaussianBlur stdDeviation="2"/>
<feComposite in2="hardAlpha" operator="out"/>
<feColorMatrix type="matrix" values="0 0 0 0 0 0 0 0 0 0 0 0 0 0 0 0 0 0 0.25 0"/>
<feBlend mode="normal" in2="BackgroundImageFix" result="effect1_dropShadow_9_30"/>
<feBlend mode="normal" in="SourceGraphic" in2="effect1_dropShadow_9_30" result="shape"/>
</filter>
</defs>
</svg>
